<?xml version="1.0" encoding="UTF-8"?>
<svg version="1.1" xmlns="http://www.w3.org/2000/svg" width="251" height="251">
<path d="M0 0 C1.23362526 0.00405602 1.23362526 0.00405602 2.49217224 0.00819397 C3.8408992 0.02054329 3.8408992 0.02054329 5.21687317 0.03314209 C6.16696762 0.03793076 7.11706207 0.04271942 8.09594727 0.0476532 C11.24935986 0.06538773 14.40263804 0.09114063 17.5559845 0.11810303 C19.75539114 0.13480452 21.95479809 0.15146654 24.15420532 0.16809082 C28.77702529 0.20461542 33.39977949 0.24583066 38.02253723 0.28948975 C43.90722033 0.34410936 49.79186498 0.38087724 55.67670727 0.41312027 C60.22827433 0.44119895 64.77966092 0.4822689 69.33109474 0.52672577 C71.49767266 0.54575753 73.66429718 0.56013586 75.83093834 0.56952667 C102.15284838 0.69492725 130.2673688 5.12994293 150.95051575 23.10247803 C150.95051575 23.76247803 150.95051575 24.42247803 150.95051575 25.10247803 C151.51512512 25.34482178 152.0797345 25.58716553 152.66145325 25.83685303 C162.33142804 31.18339199 168.95546801 42.12748324 174.95051575 51.10247803 C175.53961731 51.95712646 176.12871887 52.8117749 176.735672 53.69232178 C181.25695035 60.6419082 183.60903184 68.22334017 185.95051575 76.10247803 C186.17610168 76.82048584 186.40168762 77.53849365 186.6341095 78.27825928 C194.41621842 105.48547728 190.2585533 136.92579193 176.907547 161.62982178 C169.00235306 175.65720184 158.79661588 187.40194743 145.95051575 197.10247803 C145.08297668 197.8423999 144.21543762 198.58232178 143.3216095 199.34466553 C140.95051575 201.10247803 140.95051575 201.10247803 137.95051575 201.10247803 C137.95051575 201.76247803 137.95051575 202.42247803 137.95051575 203.10247803 C118.23589548 212.46035111 99.85764912 219.31706849 77.73713684 219.21600342 C76.87736237 219.21614944 76.01758789 219.21629547 75.13175964 219.21644592 C72.32913058 219.21575698 69.5265705 219.20801298 66.72395325 219.20013428 C64.76526424 219.19826647 62.80657477 219.19684428 60.84788513 219.19584656 C55.72204777 219.19204993 50.59623926 219.18224437 45.47041321 219.17114258 C40.22810761 219.16086674 34.98579729 219.15633577 29.7434845 219.15130615 C19.47914898 219.14061924 9.21483478 219.12357755 -1.04948425 219.10247803 C0.8138955 214.8830564 3.57157634 213.03008616 7.32551575 210.53997803 C14.46970781 205.62528412 20.71757455 200.11181595 26.95051575 194.10247803 C27.61696106 193.48759521 28.28340637 192.8727124 28.970047 192.23919678 C33.40715871 188.04247035 36.80386776 183.29493276 40.251297 178.26263428 C40.81203918 177.54978271 41.37278137 176.83693115 41.95051575 176.10247803 C42.61051575 176.10247803 43.27051575 176.10247803 43.95051575 176.10247803 C44.07740784 175.51821045 44.20429993 174.93394287 44.33503723 174.33197021 C44.93881101 172.14487695 45.71827705 170.41898102 46.798172 168.43060303 C47.15588684 167.76673584 47.51360168 167.10286865 47.88215637 166.41888428 C48.25533997 165.73697021 48.62852356 165.05505615 49.01301575 164.35247803 C49.57859192 163.30640381 49.57859192 163.30640381 50.15559387 162.23919678 C51.08324963 160.524795 52.01635029 158.81334142 52.95051575 157.10247803 C54.40735779 157.08060425 54.40735779 157.08060425 55.89363098 157.05828857 C59.58617893 156.99918501 63.27818593 156.92199047 66.97029114 156.84002686 C68.55158035 156.80729291 70.13297203 156.77911131 71.71443176 156.75604248 C80.3090669 156.62743762 88.73834809 156.20832782 97.2278595 154.79388428 C98.25936378 154.63069954 98.25936378 154.63069954 99.31170654 154.46421814 C106.20185764 153.19593962 110.88383179 149.74621903 115.95051575 145.10247803 C116.61438293 144.5327124 117.27825012 143.96294678 117.9622345 143.37591553 C127.91273391 134.26721541 131.69324687 122.33014841 133.298172 109.27435303 C133.79250357 95.94889334 128.20213411 82.76119015 119.70051575 72.72747803 C108.34601439 60.89987245 93.23057538 56.31286735 77.21733093 55.94425964 C75.57098764 55.92402041 73.92458092 55.90852237 72.27815247 55.89715576 C71.36961014 55.88725616 70.46106781 55.87735657 69.5249939 55.86715698 C66.56008902 55.8358917 63.59516819 55.81092484 60.63020325 55.78607178 C58.55940871 55.76547194 56.48861809 55.74447473 54.41783142 55.72309875 C48.99612116 55.66819073 43.57437495 55.61864497 38.15260315 55.57025146 C32.60864605 55.51980655 27.06474046 55.46424109 21.52082825 55.40911865 C10.66410154 55.30192018 -0.19267011 55.20039188 -11.04948425 55.10247803 C-11.15096612 48.21580603 -11.22098415 41.32932711 -11.26921082 34.44207764 C-11.2893169 32.09955642 -11.31660591 29.75708532 -11.35124207 27.41473389 C-11.39980266 24.0461998 -11.42246348 20.67832972 -11.44010925 17.30950928 C-11.46075439 16.26350052 -11.48139954 15.21749176 -11.50267029 14.13978577 C-11.50490681 6.88046129 -11.50490681 6.88046129 -9.21257019 2.96453857 C-6.21044667 0.38020493 -3.82520924 -0.02357471 0 0 Z " fill="#FD8D22" transform="translate(36.04948425292969,18.89752197265625)"/>
<path d="M0 0 C0.66 0 1.32 0 2 0 C12.20655327 29.72782506 13.91750783 62.470522 0.09716797 91.49658203 C-8.18026455 108.02410302 -19.23946098 121.85381097 -34 133 C-34.86753906 133.73992187 -35.73507813 134.47984375 -36.62890625 135.2421875 C-39 137 -39 137 -42 137 C-42 137.66 -42 138.32 -42 139 C-61.71462026 148.35787309 -80.09286663 155.21459047 -102.21337891 155.11352539 C-103.07315338 155.11367142 -103.93292786 155.11381744 -104.8187561 155.1139679 C-107.62138517 155.11327895 -110.42394525 155.10553495 -113.2265625 155.09765625 C-115.1852515 155.09578844 -117.14394098 155.09436625 -119.10263062 155.09336853 C-124.22846798 155.0895719 -129.35427648 155.07976634 -134.48010254 155.06866455 C-139.72240814 155.05838871 -144.96471846 155.05385775 -150.20703125 155.04882812 C-160.47136677 155.03814121 -170.73568097 155.02109952 -181 155 C-179.13662025 150.78057837 -176.37893941 148.92760814 -172.625 146.4375 C-165.48080794 141.52280609 -159.2329412 136.00933792 -153 130 C-152.33355469 129.38511719 -151.66710937 128.77023438 -150.98046875 128.13671875 C-146.54335704 123.93999232 -143.14664799 119.19245473 -139.69921875 114.16015625 C-139.13847656 113.44730469 -138.57773438 112.73445313 -138 112 C-137.34 112 -136.68 112 -136 112 C-135.87310791 111.41573242 -135.74621582 110.83146484 -135.61547852 110.22949219 C-135.01170474 108.04239893 -134.2322387 106.316503 -133.15234375 104.328125 C-132.79462891 103.66425781 -132.43691406 103.00039062 -132.06835938 102.31640625 C-131.69517578 101.63449219 -131.32199219 100.95257813 -130.9375 100.25 C-130.56044922 99.55261719 -130.18339844 98.85523438 -129.79492188 98.13671875 C-128.86726612 96.42231698 -127.93416546 94.71086339 -127 93 C-125.55101318 92.970271 -125.55101318 92.970271 -124.07275391 92.93994141 C-89.19908039 92.19904032 -56.0552623 91.29373437 -29 66 C-28.23816406 65.34 -27.47632813 64.68 -26.69140625 64 C-8.44470181 47.30284238 -2.38515016 23.68313804 0 0 Z " fill="#0637BF" transform="translate(216,83)"/>
<path d="M0 0 C18.48 0 36.96 0 56 0 C56.32087047 21.32006043 56.32087047 21.32006043 56.390625 30.5 C56.43820861 36.73233422 56.49412022 42.96371668 56.60351562 49.1953125 C56.69128002 54.22696254 56.73844788 59.25759035 56.75901794 64.28994751 C56.77365137 66.19715442 56.80222247 68.10431366 56.84584045 70.01107788 C57.20500326 86.38263682 53.32374568 98.74748744 42.5625 111.4375 C41.87426147 112.28078857 41.87426147 112.28078857 41.17211914 113.14111328 C37.119446 118.03118496 32.89272788 122.93527222 28 127 C27.34 127 26.68 127 26 127 C26 127.66 26 128.32 26 129 C25.34 129 24.68 129 24 129 C24 129.66 24 130.32 24 131 C22.39526367 132.38867187 22.39526367 132.38867187 20.16796875 133.96875 C19.36939453 134.53980469 18.57082031 135.11085937 17.74804688 135.69921875 C16.90306641 136.29347656 16.05808594 136.88773438 15.1875 137.5 C14.35412109 138.09425781 13.52074219 138.68851563 12.66210938 139.30078125 C3.24842163 146 3.24842163 146 0 146 C0 97.82 0 49.64 0 0 Z " fill="#0296F1" transform="translate(25,91)"/>
<path d="M0 0 C18.48 0 36.96 0 56 0 C56.28076167 21.40027805 56.28076167 21.40027805 56.34179688 30.59765625 C56.38347061 36.84759682 56.43250148 43.09681231 56.52807617 49.34619141 C56.60473314 54.39077514 56.64611467 59.43458029 56.6641407 64.479702 C56.67696866 66.39410517 56.70201634 68.30847088 56.7401104 70.22253799 C56.97731477 82.64731847 55.83897934 91.39282107 49 102 C48.67 101.34 48.34 100.68 48 100 C48.92128232 98.18853494 49.89421241 96.403296 50.88720703 94.63012695 C55.18357973 85.5591354 54.85757117 76.79475639 54.8046875 66.91796875 C54.8159592 65.00839067 54.82984917 63.09882643 54.84622192 61.18928528 C54.88201999 56.20636022 54.88266406 51.22405169 54.87554932 46.24102783 C54.87446963 40.23929816 54.91782593 34.23773893 54.95358276 28.23613739 C55.00277538 19.15710781 54.99613549 10.07967073 55 1 C29.755 1.495 29.755 1.495 4 2 C4 45.89 4 89.78 4 135 C6.64 135.33 9.28 135.66 12 136 C12.495 134.02 12.495 134.02 13 132 C14.32 131.67 15.64 131.34 17 131 C16.67 130.01 16.34 129.02 16 128 C18.83967231 128 21.23735711 128.40267181 24 129 C24 129.66 24 130.32 24 131 C22.39526367 132.38867187 22.39526367 132.38867187 20.16796875 133.96875 C19.36939453 134.53980469 18.57082031 135.11085937 17.74804688 135.69921875 C16.90306641 136.29347656 16.05808594 136.88773438 15.1875 137.5 C14.35412109 138.09425781 13.52074219 138.68851563 12.66210938 139.30078125 C3.24842163 146 3.24842163 146 0 146 C0 97.82 0 49.64 0 0 Z " fill="#87CDED" transform="translate(25,91)"/>
<path d="M0 0 C0.66 0 1.32 0 2 0 C2.495 3.465 2.495 3.465 3 7 C0.33333333 8.33333333 -2.33333333 9.66666667 -5 11 C-5 12.65 -5 14.3 -5 16 C-4.34 16 -3.68 16 -3 16 C-3.33 18.31 -3.66 20.62 -4 23 C-4.99 22.67 -5.98 22.34 -7 22 C-9.0624994 23.81222534 -9.0624994 23.81222534 -11 26 C-11 26.99 -11 27.98 -11 29 C-11.99 29.33 -12.98 29.66 -14 30 C-14.33 30.66 -14.66 31.32 -15 32 C-14.34 32 -13.68 32 -13 32 C-13.33 34.64 -13.66 37.28 -14 40 C-19.61 40 -25.22 40 -31 40 C-30.67 39.01 -30.34 38.02 -30 37 C-32.31 37.66 -34.62 38.32 -37 39 C-37 39.66 -37 40.32 -37 41 C-9.94 41.33 17.12 41.66 45 42 C45 42.33 45 42.66 45 43 C15.96 43 -13.08 43 -43 43 C-40.8166152 38.63323039 -38.53127594 37.02865783 -34.625 34.4375 C-27.48080794 29.52280609 -21.2329412 24.00933792 -15 18 C-14.33355469 17.38511719 -13.66710937 16.77023438 -12.98046875 16.13671875 C-8.54335704 11.93999232 -5.14664799 7.19245473 -1.69921875 2.16015625 C-1.13847656 1.44730469 -0.57773438 0.73445312 0 0 Z " fill="#1174E6" transform="translate(78,195)"/>
<path d="M0 0 C0.66 0 1.32 0 2 0 C5.07794799 7.87350088 6.59972035 14.53727954 6 23 C4.35 22.01 2.7 21.02 1 20 C0.82984375 20.70125 0.6596875 21.4025 0.484375 22.125 C-0.70052436 26.76375493 -1.86172073 31.04538836 -4.1875 35.25 C-5.85424563 38.27875046 -5.99820728 39.10935599 -5.9375 42.8125 C-5.958125 43.864375 -5.97875 44.91625 -6 46 C-8.375 47.625 -8.375 47.625 -11 49 C-12.65134583 51.90951408 -13.014702 53.64715193 -12.875 57 C-13.03941338 60.94592103 -14.31263242 62.16736931 -17 65 C-17.804375 65.928125 -18.60875 66.85625 -19.4375 67.8125 C-22 70 -22 70 -24.8125 70.3125 C-25.534375 70.209375 -26.25625 70.10625 -27 70 C-27.12375 70.5775 -27.2475 71.155 -27.375 71.75 C-28.03541228 74.12748422 -28.67458214 75.91246686 -30 78 C-32.1640625 79.046875 -32.1640625 79.046875 -34.625 79.75 C-35.44226563 79.99234375 -36.25953125 80.2346875 -37.1015625 80.484375 C-37.72804687 80.65453125 -38.35453125 80.8246875 -39 81 C-39 80.34 -39 79.68 -39 79 C-41.62187494 80.04874998 -42.79371361 80.64931313 -44.25 83.125 C-44.4975 83.74375 -44.745 84.3625 -45 85 C-45.66 85 -46.32 85 -47 85 C-47.33 84.34 -47.66 83.68 -48 83 C-48.99 82.34 -49.98 81.68 -51 81 C-50.33355469 80.67128906 -49.66710937 80.34257812 -48.98046875 80.00390625 C-41.51432322 76.15074863 -35.27262154 71.57150885 -29 66 C-28.22785156 65.33484375 -27.45570313 64.6696875 -26.66015625 63.984375 C-8.46176876 47.22522729 -2.3877002 23.70845845 0 0 Z " fill="#0A1CA6" transform="translate(216,83)"/>
<path d="M0 0 C0.99 0.495 0.99 0.495 2 1 C-11.40425476 22.08997081 -32.0247165 35.23870054 -55.65161133 42.48876953 C-58.16612873 43.03616525 -60.43440259 43.09035995 -63 43 C-62.44957031 42.74605469 -61.89914063 42.49210937 -61.33203125 42.23046875 C-53.59221313 38.14664512 -46.93273528 32.36801749 -41 26 C-40.00346617 24.9965458 -39.00447421 23.99550569 -38 23 C-38 24.98 -38 26.96 -38 29 C-37.34 29 -36.68 29 -36 29 C-36 29.66 -36 30.32 -36 31 C-34.02 30.67 -32.04 30.34 -30 30 C-30 29.34 -30 28.68 -30 28 C-29.01 28 -28.02 28 -27 28 C-27 27.34 -27 26.68 -27 26 C-26.34 26 -25.68 26 -25 26 C-25 25.34 -25 24.68 -25 24 C-23.68 24 -22.36 24 -21 24 C-20.9071875 23.071875 -20.9071875 23.071875 -20.8125 22.125 C-20.544375 21.42375 -20.27625 20.7225 -20 20 C-19.2575 19.773125 -18.515 19.54625 -17.75 19.3125 C-13.9121406 17.48079438 -13.13084795 14.81421412 -11.265625 11.11328125 C-9.65713453 8.42749932 -7.69399816 7.49666564 -5 6 C-4.11341534 3.40877257 -4.11341534 3.40877257 -4 1 C-2.68 1.33 -1.36 1.66 0 2 C0 1.34 0 0.68 0 0 Z " fill="#E2763D" transform="translate(200,131)"/>
<path d="M0 0 C17.49 0 34.98 0 53 0 C53.12032643 21.18190786 53.12032643 21.18190786 53.14648438 30.22851562 C53.16440018 36.39534269 53.18556827 42.5620358 53.22631836 48.72875977 C53.25897473 53.70192366 53.27686632 58.67494385 53.28463173 63.64820671 C53.29016396 65.54317422 53.30096707 67.4381341 53.31719017 69.33304024 C53.33904789 71.99246183 53.34196344 74.65129369 53.34057617 77.31079102 C53.351362 78.0897876 53.36214783 78.86878418 53.3732605 79.67138672 C53.34425184 84.82908275 52.3102921 88.38020251 50 93 C49.67 93 49.34 93 49 93 C49 91.35 49 89.7 49 88 C49.66 88 50.32 88 51 88 C50.89255351 77.09950898 50.77993125 66.19908499 50.66066074 55.29871655 C50.60544501 50.23749669 50.5520271 45.17627104 50.50268555 40.11499023 C50.45502218 35.23258188 50.40267855 30.35024428 50.34705925 25.4679203 C50.32664466 23.60318064 50.30793009 21.73842157 50.29092598 19.87364769 C50.26686222 17.26619822 50.23681025 14.65888255 50.20532227 12.05151367 C50.19668907 10.88949936 50.19668907 10.88949936 50.18788147 9.70401001 C50.14438174 6.54484182 50.00632226 4.01896679 49 1 C32.83 1 16.66 1 0 1 C0 0.67 0 0.34 0 0 Z " fill="#1976C9" transform="translate(27,92)"/>
<path d="M0 0 C0.66 0 1.32 0 2 0 C2.33 2.31 2.66 4.62 3 7 C0.33333333 8.33333333 -2.33333333 9.66666667 -5 11 C-5 12.65 -5 14.3 -5 16 C-4.34 16 -3.68 16 -3 16 C-3.33 18.31 -3.66 20.62 -4 23 C-4.99 22.67 -5.98 22.34 -7 22 C-8.59661202 23.15212684 -8.59661202 23.15212684 -10.125 24.8125 C-14.77422967 29.07594253 -19.81334204 30 -26 30 C-24.31457991 28.14390446 -22.62715154 26.2897391 -20.9375 24.4375 C-20.43307373 23.88392822 -19.92864746 23.33035645 -19.40893555 22.76000977 C-16.78533319 19.89549431 -14.13160647 17.11237311 -11.3125 14.4375 C-7.5358597 10.77032754 -4.6657323 6.4904501 -1.69921875 2.16015625 C-0.85810547 1.09087891 -0.85810547 1.09087891 0 0 Z " fill="#0165E3" transform="translate(78,195)"/>
<path d="M0 0 C0.33 0 0.66 0 1 0 C1.16818126 6.63842252 1.32807995 13.27700721 1.48217773 19.91577148 C1.53559999 22.1749322 1.59092952 24.43404863 1.64819336 26.69311523 C1.73009772 29.93724012 1.80517779 33.18146155 1.87890625 36.42578125 C1.91945885 37.94465691 1.91945885 37.94465691 1.96083069 39.49421692 C1.98092697 40.43496567 2.00102325 41.37571442 2.02172852 42.3449707 C2.05170677 43.58740288 2.05170677 43.58740288 2.08229065 44.85493469 C2 47 2 47 1 50 C2.13561371 49.98525131 3.27122742 49.97050262 4.44125366 49.95530701 C15.12449198 49.817224 25.80778502 49.68448815 36.49115562 49.5570364 C41.98405081 49.4913334 47.47690892 49.42372269 52.96972656 49.35180664 C58.26699803 49.28252011 63.56430824 49.21817355 68.86168289 49.15730476 C70.8863812 49.13316176 72.91105881 49.10721509 74.93571091 49.07946587 C77.76358551 49.04101098 80.59146467 49.00887273 83.41943359 48.97827148 C84.26316025 48.96532547 85.1068869 48.95237946 85.97618103 48.93904114 C91.77189568 48.88594784 91.77189568 48.88594784 94 50 C95.70363822 50.22622081 97.41328701 50.40888473 99.125 50.5625 C100.03507812 50.64628906 100.94515625 50.73007813 101.8828125 50.81640625 C102.58148438 50.87699219 103.28015625 50.93757813 104 51 C104 51.33 104 51.66 104 52 C69.35 51.67 34.7 51.34 -1 51 C-1 1 -1 1 0 0 Z " fill="#E57C32" transform="translate(27,22)"/>
<path d="M0 0 C0 0.66 0 1.32 0 2 C29.04 2.33 58.08 2.66 88 3 C84.07576446 5.61615703 80.76461941 5.26556915 76.21411133 5.22705078 C75.31634476 5.22734283 74.41857819 5.22763489 73.49360657 5.22793579 C70.52298351 5.22654125 67.55261055 5.21097415 64.58203125 5.1953125 C62.5236576 5.19158281 60.46528218 5.18873563 58.40690613 5.18673706 C52.98665473 5.17909712 47.56651035 5.15944549 42.14630127 5.1373291 C36.61642912 5.11687847 31.08653969 5.10773702 25.55664062 5.09765625 C14.70438004 5.07619998 3.85219892 5.04205964 -7 5 C-7 3.68 -7 2.36 -7 1 C-4 0 -4 0 0 0 Z " fill="#1E65CA" transform="translate(48,232)"/>
<path d="M0 0 C-6.30374099 3.93983812 -15.28378861 3.24259528 -22.5 3.5625 C-23.87671875 3.62727539 -23.87671875 3.62727539 -25.28125 3.69335938 C-27.52072061 3.79833456 -29.76028092 3.90049248 -32 4 C-32 4.33 -32 4.66 -32 5 C-33.98 5 -35.96 5 -38 5 C-38 5.99 -38 6.98 -38 8 C-38.99 8 -39.98 8 -41 8 C-41.33 8.66 -41.66 9.32 -42 10 C-42.99 10.33 -43.98 10.66 -45 11 C-45.2165625 12.11375 -45.2165625 12.11375 -45.4375 13.25 C-45.90187492 15.52027739 -46.41863569 17.75759479 -47 20 C-47.33 19.34 -47.66 18.68 -48 18 C-51.14737182 18.69941596 -54.02588876 19.76078698 -57 21 C-56.38737369 18.17919621 -55.52845191 15.86191144 -54.15234375 13.328125 C-53.79462891 12.66425781 -53.43691406 12.00039062 -53.06835938 11.31640625 C-52.69517578 10.63449219 -52.32199219 9.95257813 -51.9375 9.25 C-51.56044922 8.55261719 -51.18339844 7.85523438 -50.79492188 7.13671875 C-49.86726612 5.42231698 -48.93416546 3.71086339 -48 2 C-46.47246094 1.96241577 -46.47246094 1.96241577 -44.9140625 1.92407227 C-41.10454587 1.82928342 -37.29518154 1.72924282 -33.48583984 1.62768555 C-31.84297266 1.58460506 -30.20006841 1.54291343 -28.55712891 1.50268555 C-26.18380603 1.44432515 -23.81066521 1.38082725 -21.4375 1.31640625 C-20.71320801 1.29969376 -19.98891602 1.28298126 -19.24267578 1.26576233 C-12.80250291 1.08229337 -6.43023758 -0.20094492 0 0 Z " fill="#6292E2" transform="translate(137,174)"/>
<path d="M0 0 C17.8865208 0.97562841 38.39499804 9.17798975 52 21 C52 21.66 52 22.32 52 23 C52.598125 23.2475 53.19625 23.495 53.8125 23.75 C56.28647521 25.16370012 57.43370255 26.65055383 59 29 C58.46375 28.71125 57.9275 28.4225 57.375 28.125 C53.14145027 26.11963434 49.71256829 25 45 25 C44.505 23.02 44.505 23.02 44 21 C42.88625 20.7525 41.7725 20.505 40.625 20.25 C37 19 37 19 35.9375 17.0625 C35.628125 16.381875 35.31875 15.70125 35 15 C31.9665533 13.23272142 31.9665533 13.23272142 29 12 C29 11.01 29 10.02 29 9 C28.35933594 8.87882812 27.71867187 8.75765625 27.05859375 8.6328125 C21.95071067 7.64320773 16.97749731 6.51489049 12 5 C12 4.34 12 3.68 12 3 C10.14375 2.814375 10.14375 2.814375 8.25 2.625 C5.07606638 2.30760664 2.79374023 1.5478831 0 0 Z " fill="#F9C567" transform="translate(135,21)"/>
<path d="M0 0 C6.82173995 5.04215562 11.17191945 11.36977292 15.83837891 18.33691406 C17.08536947 20.17496711 17.08536947 20.17496711 19.04296875 22.4296875 C23.65380118 28.35940793 23.16624492 33.47009913 22.375 40.625 C21.97184643 43.76020938 21.51833578 46.88181539 21 50 C20.67 50 20.34 50 20 50 C19.99589111 49.43079834 19.99178223 48.86159668 19.98754883 48.27514648 C19.95437174 45.66158822 19.88370805 43.05028777 19.8125 40.4375 C19.80669922 39.54224609 19.80089844 38.64699219 19.79492188 37.72460938 C19.57810878 31.14794544 18.11108467 28.09459775 14 23 C14 22.01 14 21.02 14 20 C13.01 19.67 12.02 19.34 11 19 C10 17 9 15 8 13 C7.01 12.67 6.02 12.34 5 12 C5.33 10.68 5.66 9.36 6 8 C5.38125 7.79375 4.7625 7.5875 4.125 7.375 C1.15346355 5.45224112 0.86975341 3.33405473 0 0 Z " fill="#F7CF8F" transform="translate(194,50)"/>
<path d="M0 0 C0.66 0.33 1.32 0.66 2 1 C5.62810366 12.332225 4.99903859 25.61971965 2 37 C1.34 37 0.68 37 0 37 C-0.06058594 36.22914063 -0.12117187 35.45828125 -0.18359375 34.6640625 C-0.26738281 33.66117188 -0.35117188 32.65828125 -0.4375 31.625 C-0.51871094 30.62726563 -0.59992188 29.62953125 -0.68359375 28.6015625 C-0.84965626 26.02072387 -0.84965626 26.02072387 -2 24 C-1.34 24 -0.68 24 0 24 C-0.08378906 23.02160156 -0.16757813 22.04320312 -0.25390625 21.03515625 C-0.81041403 13.87099912 -1.12619643 7.13257737 0 0 Z " fill="#4C499A" transform="translate(222,107)"/>
<path d="M0 0 C0.66 0 1.32 0 2 0 C5.07794799 7.87350088 6.59972035 14.53727954 6 23 C4.35 22.01 2.7 21.02 1 20 C0.34 22.64 -0.32 25.28 -1 28 C-1.33 28 -1.66 28 -2 28 C-2.36799953 18.53423442 -1.22914592 9.36126309 0 0 Z " fill="#0B0984" transform="translate(216,83)"/>
<path d="M0 0 C0.33 0 0.66 0 1 0 C1 2.31 1 4.62 1 7 C0.01 7.495 0.01 7.495 -1 8 C-1 9.32 -1 10.64 -1 12 C-1.66 12 -2.32 12 -3 12 C-3.33 12.99 -3.66 13.98 -4 15 C-6.43282428 16.0532349 -8.73226655 16.9027827 -11.25 17.6875 C-12.25353516 18.02491211 -12.25353516 18.02491211 -13.27734375 18.36914062 C-16.94654119 19.5549618 -20.14201627 20.27663837 -24 20 C-23.44957031 19.74605469 -22.89914063 19.49210937 -22.33203125 19.23046875 C-13.75359618 14.70415879 -5.4079017 8.11185255 0 0 Z " fill="#F56F1E" transform="translate(161,154)"/>
<path d="M0 0 C0.33 0 0.66 0 1 0 C1.41741848 5.84385877 0.74860584 8.98882607 -2.12890625 14.046875 C-3.26469784 16.22401232 -3.26469784 16.22401232 -2.9375 19.8125 C-2.958125 20.864375 -2.97875 21.91625 -3 23 C-5.375 24.625 -5.375 24.625 -8 26 C-9.36939044 28.60184183 -9.96583735 30.7901437 -10.4375 33.6875 C-11 36 -11 36 -14 38 C-15.32 37.01 -16.64 36.02 -18 35 C-17.33613281 34.04480469 -16.67226562 33.08960938 -15.98828125 32.10546875 C-8.95616368 21.86121501 -3.7095598 11.90963935 0 0 Z " fill="#1E1779" transform="translate(213,106)"/>
<path d="M0 0 C0.66 0.33 1.32 0.66 2 1 C0 4 0 4 -3 5 C-3 5.66 -3 6.32 -3 7 C24.06 7.33 51.12 7.66 79 8 C79 8.33 79 8.66 79 9 C49.96 9 20.92 9 -9 9 C-7.12803847 5.25607694 -6.59931881 4.39954587 -3.375 2.25 C-2.74335937 1.82203125 -2.11171875 1.3940625 -1.4609375 0.953125 C-0.97882812 0.63859375 -0.49671875 0.3240625 0 0 Z " fill="#A9D1FF" transform="translate(44,229)"/>
<path d="M0 0 C0.95777344 0.25007812 1.91554687 0.50015625 2.90234375 0.7578125 C3.89234375 0.7578125 4.88234375 0.7578125 5.90234375 0.7578125 C3.12538593 4.35757264 0.32980727 7.75878192 -3.09765625 10.7578125 C-4.41765625 10.7578125 -5.73765625 10.7578125 -7.09765625 10.7578125 C-7.75765625 10.0978125 -8.41765625 9.4378125 -9.09765625 8.7578125 C-9.42765625 10.4078125 -9.75765625 12.0578125 -10.09765625 13.7578125 C-12.40765625 13.7578125 -14.71765625 13.7578125 -17.09765625 13.7578125 C-15.99803743 12.65819368 -14.89576258 11.56117666 -13.78515625 10.47265625 C-12.47858953 9.14491831 -11.21589351 7.77393385 -9.97265625 6.38671875 C-8.82796875 5.14728516 -8.82796875 5.14728516 -7.66015625 3.8828125 C-6.93957031 3.08101562 -6.21898437 2.27921875 -5.4765625 1.453125 C-3.09765625 -0.2421875 -3.09765625 -0.2421875 0 0 Z " fill="#091398" transform="translate(197.09765625,142.2421875)"/>
<path d="M0 0 C2.31 0.66 4.62 1.32 7 2 C5.68208664 6.81572664 3.76703894 9.94033466 0.5625 13.75 C-0.21996094 14.69359375 -1.00242188 15.6371875 -1.80859375 16.609375 C-4 19 -4 19 -7 21 C-7 20.01 -7 19.02 -7 18 C-7.66 17.67 -8.32 17.34 -9 17 C-8.34 17 -7.68 17 -7 17 C-7 16.34 -7 15.68 -7 15 C-5.68 15 -4.36 15 -3 15 C-3 13.35 -3 11.7 -3 10 C-3.99 10.495 -3.99 10.495 -5 11 C-5 9.35 -5 7.7 -5 6 C-4.01 6.33 -3.02 6.66 -2 7 C0.36980013 4.04622502 0.36980013 4.04622502 0 0 Z " fill="#2F3BAA" transform="translate(204,180)"/>
<path d="M0 0 C0.66 0 1.32 0 2 0 C2.33 2.31 2.66 4.62 3 7 C0.95027548 8.02486226 -1.08030215 9.03441521 -3.1875 9.9375 C-5.34395107 10.93434552 -5.34395107 10.93434552 -6 14 C-6.66 14 -7.32 14 -8 14 C-8.33 14.99 -8.66 15.98 -9 17 C-9.70125 17.4125 -10.4025 17.825 -11.125 18.25 C-15.00626274 20.61250776 -17.884161 23.72253246 -21 27 C-21.66 26.67 -22.32 26.34 -23 26 C-22.5875 25.60321045 -22.175 25.2064209 -21.75 24.79760742 C-14.2776886 17.57235766 -7.16138295 10.58911719 -1.41796875 1.87890625 C-0.95003906 1.25886719 -0.48210937 0.63882813 0 0 Z " fill="#7FACEA" transform="translate(78,195)"/>
<path d="M0 0 C2.31 0.66 4.62 1.32 7 2 C7 2.66 7 3.32 7 4 C4.7462179 6.09690728 2.17949968 7.82178995 -0.3125 9.625 C-1.00279297 10.140625 -1.69308594 10.65625 -2.40429688 11.1875 C-3.07138672 11.67476562 -3.73847656 12.16203125 -4.42578125 12.6640625 C-5.03848877 13.11217285 -5.65119629 13.5602832 -6.2824707 14.02197266 C-8 15 -8 15 -11 15 C-11 14.01 -11 13.02 -11 12 C-9.68 11.67 -8.36 11.34 -7 11 C-7 10.34 -7 9.68 -7 9 C-6.34 9 -5.68 9 -5 9 C-4.67 7.68 -4.34 6.36 -4 5 C-2.68 4.67 -1.36 4.34 0 4 C-0.33 3.01 -0.66 2.02 -1 1 C-0.67 0.67 -0.34 0.34 0 0 Z " fill="#11BFF4" transform="translate(42,218)"/>
<path d="M0 0 C0.33 0 0.66 0 1 0 C1.33 12.54 1.66 25.08 2 38 C3.65 38 5.3 38 7 38 C7.33 38.99 7.66 39.98 8 41 C6.02 41.495 6.02 41.495 4 42 C4 42.99 4 43.98 4 45 C2.68 45 1.36 45 0 45 C0 30.15 0 15.3 0 0 Z " fill="#16BBEF" transform="translate(27,188)"/>
<path d="M0 0 C5.29499374 4.52343751 7.45001421 13.26267404 8 20 C8.07476562 20.75539063 8.14953125 21.51078125 8.2265625 22.2890625 C8.79082588 32.83187833 5.66922878 42.89668512 3 53 C1.02 53.495 1.02 53.495 -1 54 C0.011335 50.810405 1.09620605 47.79155355 2.5 44.75 C9.09552405 29.51668302 5.23648365 14.96138185 0 0 Z " fill="#FEE3C5" transform="translate(163,100)"/>
<path d="M0 0 C0.33 0 0.66 0 1 0 C0.78687437 6.07408042 -0.60768826 11.12846934 -2.875 16.75 C-3.13168457 17.38752197 -3.38836914 18.02504395 -3.65283203 18.68188477 C-5.16486656 22.31181304 -6.81397085 25.72720208 -9 29 C-9.33 29 -9.66 29 -10 29 C-10.37065637 21.46332046 -10.37065637 21.46332046 -8.5 19.125 C-8.005 18.75375 -7.51 18.3825 -7 18 C-7 17.34 -7 16.68 -7 16 C-6.34 16 -5.68 16 -5 16 C-5.061875 14.6696875 -5.061875 14.6696875 -5.125 13.3125 C-4.99989176 9.99713157 -4.50708755 7.93044802 -3 5 C-2.34 4.67 -1.68 4.34 -1 4 C-0.34786708 1.97536745 -0.34786708 1.97536745 0 0 Z " fill="#7577B8" transform="translate(221,153)"/>
<path d="M0 0 C4.88408241 -0.45788273 8.5736024 1.21277252 13 3 C13.99 3.33 14.98 3.66 16 4 C15.67 4.99 15.34 5.98 15 7 C13.02 7.33 11.04 7.66 9 8 C8.34 6.68 7.68 5.36 7 4 C6.01 4.33 5.02 4.66 4 5 C3.67 5.99 3.34 6.98 3 8 C1.68 8 0.36 8 -1 8 C-1.125 2.25 -1.125 2.25 0 0 Z " fill="#F8AE37" transform="translate(148,26)"/>
<path d="M0 0 C1.00778825 3.02336474 1.50661072 5.85464332 2 9 C2.185625 10.11375 2.37125 11.2275 2.5625 12.375 C2.706875 13.24125 2.85125 14.1075 3 15 C2.01 15.495 2.01 15.495 1 16 C1 15.34 1 14.68 1 14 C-2.14737182 14.69941596 -5.02588876 15.76078698 -8 17 C-7.30150228 13.0254496 -5.37107231 9.73425902 -3.4375 6.25 C-3.10814453 5.64800781 -2.77878906 5.04601562 -2.43945312 4.42578125 C-1.6303535 2.94829497 -0.81572338 1.47383964 0 0 Z " fill="#3773D9" transform="translate(88,178)"/>
<path d="M0 0 C5.04961009 -0.07498279 10.09888564 -0.12898919 15.14892578 -0.16479492 C16.86154842 -0.1797446 18.57413371 -0.20011186 20.28662109 -0.22631836 C30.28931436 -0.37539415 39.38626461 -0.20578319 49 3 C49 3.33 49 3.66 49 4 C42.84765625 4.09765625 42.84765625 4.09765625 41 4 C40.505 3.505 40.505 3.505 40 3 C37.49183963 2.9531185 35.00664455 2.95400652 32.5 3 C29.99335545 3.04599348 27.50816037 3.0468815 25 3 C24.67 2.67 24.34 2.34 24 2 C22.41740426 1.95167647 20.83291028 1.96340092 19.25 2 C12.79458809 2.06786241 6.42617532 1.57212372 0 1 C0 0.67 0 0.34 0 0 Z " fill="#F3A93E" transform="translate(98,21)"/>
<path d="M0 0 C5.2469855 -0.02488901 10.49393592 -0.04294884 15.7409668 -0.05493164 C17.52254842 -0.05993201 19.30412599 -0.06673446 21.08569336 -0.07543945 C23.6600037 -0.08769464 26.23425936 -0.09327142 28.80859375 -0.09765625 C29.59334579 -0.10281754 30.37809784 -0.10797882 31.18663025 -0.11329651 C36.52956863 -0.11382743 41.69793151 0.33291345 47 1 C47 1.33 47 1.66 47 2 C44.1670419 2.1967332 41.33403677 2.38259641 38.5 2.5625 C37.31277344 2.64661133 37.31277344 2.64661133 36.1015625 2.73242188 C31.66056865 3.00543379 27.5620366 2.92713325 23.13867188 2.27368164 C18.78260256 1.716244 14.38482646 1.62196511 10 1.4375 C9.03449219 1.39431641 8.06898437 1.35113281 7.07421875 1.30664062 C4.71625575 1.20158287 2.35820584 1.09943086 0 1 C0 0.67 0 0.34 0 0 Z " fill="#F9952A" transform="translate(60,21)"/>
<path d="M0 0 C0.66 0.33 1.32 0.66 2 1 C-6.18757373 13.36846245 -6.18757373 13.36846245 -12 18 C-12.66 18 -13.32 18 -14 18 C-13.38223347 13.98451758 -11.43157874 11.1957892 -9 8 C-8.278125 7.649375 -7.55625 7.29875 -6.8125 6.9375 C-6.214375 6.628125 -5.61625 6.31875 -5 6 C-4.18828772 3.44480079 -4.18828772 3.44480079 -4 1 C-2.68 1.33 -1.36 1.66 0 2 C0 1.34 0 0.68 0 0 Z " fill="#EA833F" transform="translate(200,131)"/>
<path d="M0 0 C14.09471114 0.76880243 27.02268305 5.7719496 39 13 C35.93109813 14.53445094 33.29905734 13.54984289 30 13 C29.67 11.68 29.34 10.36 29 9 C28.35933594 8.87882812 27.71867187 8.75765625 27.05859375 8.6328125 C21.95071067 7.64320773 16.97749731 6.51489049 12 5 C12 4.34 12 3.68 12 3 C10.14375 2.814375 10.14375 2.814375 8.25 2.625 C5.07606638 2.30760664 2.79374023 1.5478831 0 0 Z " fill="#FAE4AC" transform="translate(135,21)"/>
<path d="M0 0 C-3.40689682 2.27126455 -5.10263559 2.33472756 -9.125 2.5625 C-12.87914167 2.46334775 -12.87914167 2.46334775 -16 4 C-18.59573524 4.01695563 -21.16136918 3.9710781 -23.75390625 3.87890625 C-24.91707619 3.84348976 -24.91707619 3.84348976 -26.10374451 3.80735779 C-28.59017435 3.7305411 -31.07630669 3.646595 -33.5625 3.5625 C-35.24412587 3.5092973 -36.92576644 3.4565568 -38.60742188 3.40429688 C-42.73847106 3.27490179 -46.86926702 3.1391106 -51 3 C-51 2.67 -51 2.34 -51 2 C-49.50388184 1.970271 -49.50388184 1.970271 -47.97753906 1.93994141 C-44.21998989 1.86294292 -40.46278144 1.774385 -36.70556641 1.68261719 C-35.09007573 1.64471146 -33.47451162 1.60979745 -31.85888672 1.578125 C-23.20859183 1.40651345 -14.87426732 1.12201068 -6.37402344 -0.68212891 C-3.91715842 -1.01109212 -2.33457257 -0.77253869 0 0 Z " fill="#18469D" transform="translate(141,175)"/>
<path d="M0 0 C17.16 0 34.32 0 52 0 C52 1.32 52 2.64 52 4 C51.01 3.67 50.02 3.34 49 3 C49 2.34 49 1.68 49 1 C32.83 1 16.66 1 0 1 C0 0.67 0 0.34 0 0 Z " fill="#1271CE" transform="translate(27,92)"/>
<path d="M0 0 C1 3 1 3 -0.43359375 6.13671875 C-1.09135973 7.3260128 -1.75977815 8.50946371 -2.4375 9.6875 C-2.77587891 10.29400391 -3.11425781 10.90050781 -3.46289062 11.52539062 C-4.29957915 13.0220025 -5.14862831 14.51169189 -6 16 C-6.33 16 -6.66 16 -7 16 C-7.33 12.37 -7.66 8.74 -8 5 C-4.535 4.505 -4.535 4.505 -1 4 C-0.67 2.68 -0.34 1.36 0 0 Z " fill="#EA863C" transform="translate(209,115)"/>
<path d="M0 0 C0.66 0.33 1.32 0.66 2 1 C0 4 0 4 -3 5 C-3 5.66 -3 6.32 -3 7 C4.26 7.33 11.52 7.66 19 8 C19 8.33 19 8.66 19 9 C9.76 9 0.52 9 -9 9 C-7.12803847 5.25607694 -6.59931881 4.39954587 -3.375 2.25 C-2.74335937 1.82203125 -2.11171875 1.3940625 -1.4609375 0.953125 C-0.97882812 0.63859375 -0.49671875 0.3240625 0 0 Z " fill="#A6D6FE" transform="translate(44,229)"/>
<path d="M0 0 C10.91937524 8.92566909 10.91937524 8.92566909 11.75 15.3125 C11.87375 17.1378125 11.87375 17.1378125 12 19 C10 17 10 17 9.0625 14.9375 C8.09596458 12.65434116 8.09596458 12.65434116 5 12 C5.33 10.68 5.66 9.36 6 8 C5.38125 7.79375 4.7625 7.5875 4.125 7.375 C1.15346355 5.45224112 0.86975341 3.33405473 0 0 Z " fill="#F5BE66" transform="translate(194,50)"/>
<path d="M0 0 C0.68707555 2.49064888 1 4.37886292 1 7 C0.34 7 -0.32 7 -1 7 C-1.33 6.34 -1.66 5.68 -2 5 C-4.2773501 7.81509993 -4.2773501 7.81509993 -4 11 C-8.95 12.485 -8.95 12.485 -14 14 C-9.33333333 9.33333333 -4.66666667 4.66666667 0 0 Z " fill="#0D69D6" transform="translate(66,212)"/>
<path d="M0 0 C0.66 0 1.32 0 2 0 C2 0.66 2 1.32 2 2 C1.01 2.495 1.01 2.495 0 3 C0 3.99 0 4.98 0 6 C-1.175625 6.37125 -1.175625 6.37125 -2.375 6.75 C-5.32317108 8.15389099 -5.9024777 9.00675737 -7 12 C-7.66 12 -8.32 12 -9 12 C-9.33 11.34 -9.66 10.68 -10 10 C-10.99 9.34 -11.98 8.68 -13 8 C-12.22914063 7.59007812 -11.45828125 7.18015625 -10.6640625 6.7578125 C-9.66117188 6.21898437 -8.65828125 5.68015625 -7.625 5.125 C-6.62726563 4.59132812 -5.62953125 4.05765625 -4.6015625 3.5078125 C-1.94651605 2.1179862 -1.94651605 2.1179862 0 0 Z " fill="#372B81" transform="translate(178,156)"/>
<path d="M0 0 C0 3 0 3 -2.1171875 5.48046875 C-3.02726562 6.37378906 -3.93734375 7.26710937 -4.875 8.1875 C-5.77992187 9.08855469 -6.68484375 9.98960937 -7.6171875 10.91796875 C-10 13 -10 13 -12 13 C-12 13.66 -12 14.32 -12 15 C-12.66 14.67 -13.32 14.34 -14 14 C-13.67 12.68 -13.34 11.36 -13 10 C-12.34 10 -11.68 10 -11 10 C-10.95875 9.38125 -10.9175 8.7625 -10.875 8.125 C-10.58625 7.42375 -10.2975 6.7225 -10 6 C-8.01363702 5.29373761 -6.01151741 4.63106429 -4 4 C-1.66468542 2.00064306 -1.66468542 2.00064306 0 0 Z " fill="#7ED8F5" transform="translate(63,205)"/>
<path d="M0 0 C2.4375 0.75 2.4375 0.75 5 2 C5.8125 4.125 5.8125 4.125 6 6 C6.99 6 7.98 6 9 6 C9.508783 7.55966218 10.00663469 9.12289241 10.5 10.6875 C10.7784375 11.55761719 11.056875 12.42773438 11.34375 13.32421875 C11.99850805 15.99391677 12.11831495 18.26396684 12 21 C10.57687308 18.23524683 9.35983707 15.44096165 8.1875 12.5625 C6.42367115 8.52426027 4.26294423 5.99838119 1 3 C0.67 2.01 0.34 1.02 0 0 Z " fill="#EE8D3B" transform="translate(158,93)"/>
<path d="M0 0 C3.00705015 3.00705015 2.59898237 6.51174235 2.8125 10.5625 C2.85818115 11.3757373 2.9038623 12.18897461 2.95092773 13.02685547 C3.18585524 18.99628555 2.53678524 23.52054387 0 29 C-0.66 29 -1.32 29 -2 29 C-1.855625 28.33097656 -1.71125 27.66195312 -1.5625 26.97265625 C0.18681976 17.92235609 0.19557816 9.17044252 0 0 Z " fill="#E98336" transform="translate(170,115)"/>
<path d="M0 0 C5.52628901 1.19194469 8.17819158 2.5991297 12 7 C11.67 7.66 11.34 8.32 11 9 C9.948125 8.34 8.89625 7.68 7.8125 7 C4.73376063 5.2228415 2.61403672 4.56193494 -1 5 C-0.67 3.35 -0.34 1.7 0 0 Z " fill="#FDAC2E" transform="translate(183,45)"/>
<path d="M0 0 C1.43836751 0.11458693 2.87570966 0.24209116 4.3125 0.375 C5.51326172 0.47941406 5.51326172 0.47941406 6.73828125 0.5859375 C9 1 9 1 12 3 C12 4.32 12 5.64 12 7 C8.625 6.75 8.625 6.75 5 6 C3.75 4.0625 3.75 4.0625 3 2 C2.01 1.34 1.02 0.68 0 0 Z " fill="#F7C369" transform="translate(167,34)"/>
<path d="M0 0 C0.33 0 0.66 0 1 0 C1 2.31 1 4.62 1 7 C-3 9 -7 11 -11 13 C-10.62488281 12.56429687 -10.24976563 12.12859375 -9.86328125 11.6796875 C-9.35152344 11.08414063 -8.83976563 10.48859375 -8.3125 9.875 C-7.76851562 9.24207031 -7.22453125 8.60914063 -6.6640625 7.95703125 C-5.14955629 6.17588663 -3.66581794 4.37365561 -2.1875 2.5625 C-1.465625 1.716875 -0.74375 0.87125 0 0 Z " fill="#F7B183" transform="translate(161,154)"/>
<path d="M0 0 C1.98 0.99 1.98 0.99 4 2 C3.34 8.6 2.68 15.2 2 22 C1.67 22 1.34 22 1 22 C0.67 14.74 0.34 7.48 0 0 Z " fill="#DAA06E" transform="translate(213,78)"/>
<path d="M0 0 C1.32 0.66 2.64 1.32 4 2 C2.63629701 4.99220268 1.05091917 7.29026529 -1.125 9.75 C-1.93324219 10.67039063 -1.93324219 10.67039063 -2.7578125 11.609375 C-3.16773438 12.06828125 -3.57765625 12.5271875 -4 13 C-4.33 12.01 -4.66 11.02 -5 10 C-5.66 9.67 -6.32 9.34 -7 9 C-6.34 9 -5.68 9 -5 9 C-5 8.34 -5 7.68 -5 7 C-3.68 7 -2.36 7 -1 7 C-0.67 4.69 -0.34 2.38 0 0 Z " fill="#4356B5" transform="translate(202,188)"/>
<path d="M0 0 C0.33 0 0.66 0 1 0 C1.91144418 7.89918285 -1.19500511 13.20536627 -5 20 C-5.66 20 -6.32 20 -7 20 C-5.52404517 15.51695963 -3.96771452 11.06783525 -2.375 6.625 C-2.03082031 5.66400391 -2.03082031 5.66400391 -1.6796875 4.68359375 C-1.12037724 3.12218595 -0.56027192 1.56106299 0 0 Z " fill="#2F145E" transform="translate(213,106)"/>
<path d="M0 0 C0.99 0.33 1.98 0.66 3 1 C2.42365861 5.75481646 0.44931479 8.97048212 -2 13 C-2.33 13 -2.66 13 -3 13 C-3.37065637 5.46332046 -3.37065637 5.46332046 -1.5 3.125 C-1.005 2.75375 -0.51 2.3825 0 2 C0 1.34 0 0.68 0 0 Z " fill="#5054AA" transform="translate(214,169)"/>
<path d="M0 0 C2.28363378 2.28363378 2.7152849 3.74795468 3.625 6.8125 C4.01558594 8.09060547 4.01558594 8.09060547 4.4140625 9.39453125 C5.0044509 12.01979166 5.10588413 14.31920637 5 17 C2.11785184 14.67122429 1.08791275 13.46661382 0.390625 9.765625 C0.34421875 8.60546875 0.2978125 7.4453125 0.25 6.25 C0.19328125 5.07953125 0.1365625 3.9090625 0.078125 2.703125 C0.05234375 1.81109375 0.0265625 0.9190625 0 0 Z " fill="#7F80BB" transform="translate(217,83)"/>
<path d="M0 0 C2.4682001 4.36605914 2.55390845 8.07904521 2 13 C1.19696399 15.80830511 0.17268342 18.3126005 -1 21 C-1.86688859 18.10089716 -2.0458562 15.88547169 -1.66015625 12.890625 C-1.56669922 12.13652344 -1.47324219 11.38242188 -1.37695312 10.60546875 C-1.22129883 9.43951172 -1.22129883 9.43951172 -1.0625 8.25 C-0.96259766 7.45722656 -0.86269531 6.66445312 -0.75976562 5.84765625 C-0.51307129 3.89759629 -0.2574122 1.94867414 0 0 Z " fill="#2D1757" transform="translate(216,83)"/>
<path d="M0 0 C0.99 0.33 1.98 0.66 3 1 C1.49087042 5.98012761 -1.55661849 9.24259942 -5 13 C-5.33 12.01 -5.66 11.02 -6 10 C-5.34 10 -4.68 10 -4 10 C-4 8.68 -4 7.36 -4 6 C-3.34 6 -2.68 6 -2 6 C-2 5.01 -2 4.02 -2 3 C-1.34 3 -0.68 3 0 3 C0 2.01 0 1.02 0 0 Z " fill="#5DC0EA" transform="translate(70,192)"/>
<path d="M0 0 C0 3 0 3 -1.53125 4.68359375 C-2.84245737 5.85171301 -4.15495643 7.01838398 -5.46875 8.18359375 C-7.42969381 10.11375954 -7.42969381 10.11375954 -7 14 C-9.31 14 -11.62 14 -14 14 C-9.33333333 9.33333333 -4.66666667 4.66666667 0 0 Z " fill="#2E1F6D" transform="translate(194,142)"/>
<path d="M0 0 C0.33 0.66 0.66 1.32 1 2 C-1.43218059 3.19963643 -3.86970578 4.38484438 -6.3125 5.5625 C-7.00279297 5.90474609 -7.69308594 6.24699219 -8.40429688 6.59960938 C-13.66015625 9.11328125 -13.66015625 9.11328125 -17 8 C-14.03 7.01 -11.06 6.02 -8 5 C-8 4.01 -8 3.02 -8 2 C-5.36 1.34 -2.72 0.68 0 0 Z " fill="#9BADE3" transform="translate(173,220)"/>
<path d="M0 0 C0.66 0.33 1.32 0.66 2 1 C1.52354792 5.28806873 0.34097516 7.26647487 -3 10 C-3.66 10 -4.32 10 -5 10 C-4.38545304 6.00544473 -2.29353263 3.25533664 0 0 Z " fill="#EE7F2E" transform="translate(191,139)"/>
<path d="M0 0 C1.98 0 3.96 0 6 0 C6.33 0.99 6.66 1.98 7 3 C5.68 3.33 4.36 3.66 3 4 C3 4.99 3 5.98 3 7 C2.01 7 1.02 7 0 7 C0 4.69 0 2.38 0 0 Z " fill="#06C9FB" transform="translate(28,226)"/>
<path d="M0 0 C0.99 0 1.98 0 3 0 C3.33 1.65 3.66 3.3 4 5 C0.25 8 0.25 8 -2 8 C-1.125 1.125 -1.125 1.125 0 0 Z " fill="#F9721D" transform="translate(168,144)"/>
<path d="M0 0 C0.99 0.33 1.98 0.66 3 1 C2.67 2.32 2.34 3.64 2 5 C3.32 5.33 4.64 5.66 6 6 C6 6.99 6 7.98 6 9 C4.02 8.34 2.04 7.68 0 7 C0 6.34 0 5.68 0 5 C-0.66 5 -1.32 5 -2 5 C-1.34 3.35 -0.68 1.7 0 0 Z " fill="#FCA72B" transform="translate(197,57)"/>
<path d="M0 0 C-3.40689682 2.27126455 -5.10263559 2.33472756 -9.125 2.5625 C-12.87914167 2.46334775 -12.87914167 2.46334775 -16 4 C-17.66617115 4.04063832 -19.33388095 4.042721 -21 4 C-20.360625 3.690625 -19.72125 3.38125 -19.0625 3.0625 C-17.06389179 2.1654837 -17.06389179 2.1654837 -16 1 C-14.07298995 0.57436692 -12.13249322 0.20896498 -10.1875 -0.125 C-9.12917969 -0.31320313 -8.07085937 -0.50140625 -6.98046875 -0.6953125 C-4.24982385 -0.974461 -2.56223581 -0.88096243 0 0 Z " fill="#1A4BB9" transform="translate(141,175)"/>
<path d="M0 0 C0.66 0.33 1.32 0.66 2 1 C1.67 1.33 1.34 1.66 1 2 C1.99 2.66 2.98 3.32 4 4 C2.44033782 4.508783 0.87710759 5.00663469 -0.6875 5.5 C-1.99267578 5.91765625 -1.99267578 5.91765625 -3.32421875 6.34375 C-5.99391677 6.99850805 -8.26396684 7.11831495 -11 7 C-10.484375 6.773125 -9.96875 6.54625 -9.4375 6.3125 C-6.07596873 4.5024447 -3.07088856 2.26003596 0 0 Z " fill="#D6BDB8" transform="translate(148,167)"/>
<path d="M0 0 C2.0625 0.4375 2.0625 0.4375 4 1 C3.67 2.98 3.34 4.96 3 7 C1.68 7 0.36 7 -1 7 C-1.04254356 5.00045254 -1.04080783 2.99958364 -1 1 C-0.67 0.67 -0.34 0.34 0 0 Z " fill="#FDAB2C" transform="translate(148,27)"/>
<path d="M0 0 C0.66 0.33 1.32 0.66 2 1 C0 4 0 4 -3 5 C-3 5.99 -3 6.98 -3 8 C-4.65 8 -6.3 8 -8 8 C-6.88333826 4.65001479 -6.25305075 4.20659778 -3.4375 2.3125 C-2.79683594 1.87550781 -2.15617187 1.43851563 -1.49609375 0.98828125 C-1.00238281 0.66214844 -0.50867187 0.33601562 0 0 Z " fill="#80AEDE" transform="translate(44,229)"/>
<path d="M0 0 C0.66 0.33 1.32 0.66 2 1 C1.34 3.31 0.68 5.62 0 8 C-0.66 8 -1.32 8 -2 8 C-2.66 9.32 -3.32 10.64 -4 12 C-4.33 11.34 -4.66 10.68 -5 10 C-4.00390625 7.6171875 -4.00390625 7.6171875 -2.5625 4.875 C-1.85287109 3.50988281 -1.85287109 3.50988281 -1.12890625 2.1171875 C-0.75636719 1.41851562 -0.38382813 0.71984375 0 0 Z " fill="#040A8D" transform="translate(214,112)"/>
<path d="M0 0 C1.32 0.33 2.64 0.66 4 1 C1.6875 3.5 1.6875 3.5 -1 6 C-1.99 6 -2.98 6 -4 6 C-4 5.01 -4 4.02 -4 3 C-2.68 2.67 -1.36 2.34 0 2 C0 1.34 0 0.68 0 0 Z " fill="#72D9F1" transform="translate(35,227)"/>
<path d="M0 0 C1.65 0.33 3.3 0.66 5 1 C5 1.66 5 2.32 5 3 C3.25 4.5078125 3.25 4.5078125 1 6.125 C0.2575 6.66382813 -0.485 7.20265625 -1.25 7.7578125 C-1.8275 8.16773438 -2.405 8.57765625 -3 9 C-3.66 8.67 -4.32 8.34 -5 8 C-4.360625 7.608125 -3.72125 7.21625 -3.0625 6.8125 C-0.56221181 4.61527704 -0.35049575 3.24208567 0 0 Z " fill="#87E0F8" transform="translate(44,219)"/>
<path d="M0 0 C-5.01989102 4.11888494 -8.59858988 4.51211281 -15 4 C-12.19836511 2.13224341 -10.11958197 1.27321694 -6.9375 0.3125 C-6.05964844 0.04050781 -5.18179688 -0.23148438 -4.27734375 -0.51171875 C-2 -1 -2 -1 0 0 Z " fill="#263694" transform="translate(157,170)"/>
<path d="M0 0 C-0.33 0.99 -0.66 1.98 -1 3 C-4.0625 4.1875 -4.0625 4.1875 -7 5 C-7 3.68 -7 2.36 -7 1 C-4 0 -4 0 0 0 Z " fill="#0770E1" transform="translate(48,232)"/>
<path d="M0 0 C0.33 0.66 0.66 1.32 1 2 C3.02463255 2.65213292 3.02463255 2.65213292 5 3 C1.3558226 5.4294516 -0.71241272 5.16179575 -5 5 C-3.35 3.35 -1.7 1.7 0 0 Z " fill="#D57245" transform="translate(153,165)"/>
<path d="M0 0 C1.1725131 0.95117134 2.33787015 1.91117009 3.5 2.875 C4.47453125 3.67550781 4.47453125 3.67550781 5.46875 4.4921875 C5.9740625 4.98976563 6.479375 5.48734375 7 6 C7 6.66 7 7.32 7 8 C5.1875 7.8125 5.1875 7.8125 3 7 C0 2.82142857 0 2.82142857 0 0 Z " fill="#F6D894" transform="translate(194,50)"/>
<path d="M0 0 C-0.66 1.65 -1.32 3.3 -2 5 C-2.66 5 -3.32 5 -4 5 C-4.33 4.34 -4.66 3.68 -5 3 C-5.99 2.34 -6.98 1.68 -8 1 C-5.29120665 -0.35439668 -2.99066732 -0.06501451 0 0 Z " fill="#192898" transform="translate(173,163)"/>
<path d="M0 0 C0.33 0 0.66 0 1 0 C0.88557539 1.60495567 0.75805306 3.20898119 0.625 4.8125 C0.55539063 5.70582031 0.48578125 6.59914062 0.4140625 7.51953125 C0 10 0 10 -2 13 C-2.5625 11.0625 -2.5625 11.0625 -3 9 C-2.67 8.67 -2.34 8.34 -2 8 C-1.835 6.845 -1.67 5.69 -1.5 4.5 C-1 1 -1 1 0 0 Z " fill="#0E0E77" transform="translate(221,147)"/>
<path d="M0 0 C1.32 0.33 2.64 0.66 4 1 C2.02 3.31 0.04 5.62 -2 8 C-2.66 7.67 -3.32 7.34 -4 7 C-3.525625 6.5875 -3.05125 6.175 -2.5625 5.75 C-0.83733482 3.817815 -0.43415125 2.51807725 0 0 Z " fill="#8793D4" transform="translate(193,201)"/>
<path d="M0 0 C0.66 0.33 1.32 0.66 2 1 C1.67 2.65 1.34 4.3 1 6 C0.01 6 -0.98 6 -2 6 C-2 4.68 -2 3.36 -2 2 C-1.34 2 -0.68 2 0 2 C0 1.34 0 0.68 0 0 Z M-4 6 C-3.01 6.495 -3.01 6.495 -2 7 C-2.99 7.495 -2.99 7.495 -4 8 C-4 7.34 -4 6.68 -4 6 Z " fill="#070E98" transform="translate(208,124)"/>
<path d="M0 0 C1 3 1 3 0 6 C-0.66 6 -1.32 6 -2 6 C-2.33 6.66 -2.66 7.32 -3 8 C-3.33 6.35 -3.66 4.7 -4 3 C-2.68 2.01 -1.36 1.02 0 0 Z " fill="#EE8C3B" transform="translate(211,109)"/>
<path d="M0 0 C3.67420866 0.30618405 4.78135513 0.75771784 7.3125 3.5625 C8.1478125 4.7690625 8.1478125 4.7690625 9 6 C8.67 6.66 8.34 7.32 8 8 C6.66372225 6.85760183 5.33104612 5.71098945 4 4.5625 C3.2575 3.92441406 2.515 3.28632812 1.75 2.62890625 C1.1725 2.09136719 0.595 1.55382812 0 1 C0 0.67 0 0.34 0 0 Z " fill="#F7D2A5" transform="translate(147,83)"/>
<path d="M0 0 C2.475 0.495 2.475 0.495 5 1 C5.66 2.98 6.32 4.96 7 7 C3.42895561 5.12050295 1.45255699 3.82946843 0 0 Z " fill="#F8C67E" transform="translate(208,72)"/>
<path d="M0 0 C5.78461538 3.44615385 5.78461538 3.44615385 6.875 6.25 C6.936875 7.11625 6.936875 7.11625 7 8 C3.535 6.02 3.535 6.02 0 4 C0 2.68 0 1.36 0 0 Z " fill="#F2B13D" transform="translate(188,46)"/>
<path d="M0 0 C4.27343092 -0.36629408 6.48812804 0.59185923 10 3 C6.93109813 4.53445094 4.29905734 3.54984289 1 3 C0.67 2.01 0.34 1.02 0 0 Z " fill="#F8CE86" transform="translate(164,31)"/>
<path d="M0 0 C3.96 0 7.92 0 12 0 C12 1.32 12 2.64 12 4 C11.01 3.67 10.02 3.34 9 3 C9 2.34 9 1.68 9 1 C6.03 1 3.06 1 0 1 C0 0.67 0 0.34 0 0 Z " fill="#0F60C9" transform="translate(67,92)"/>
<path d="M0 0 C1.32 0.66 2.64 1.32 4 2 C2.61410019 5.09162264 1.50816459 6.49183541 -1 9 C-0.67 6.03 -0.34 3.06 0 0 Z " fill="#7982CD" transform="translate(202,188)"/>
<path d="M0 0 C0.93423645 3.01031744 1.04449911 3.86650268 0 7 C-2.0625 7.6875 -2.0625 7.6875 -4 8 C-2.25 2.25 -2.25 2.25 0 0 Z " fill="#F5B07F" transform="translate(166,146)"/>
<path d="M0 0 C0.33 0.66 0.66 1.32 1 2 C0.01 3.485 0.01 3.485 -1 5 C-1.66 5 -2.32 5 -3 5 C-3.33 5.99 -3.66 6.98 -4 8 C-4.66 7.67 -5.32 7.34 -6 7 C-4.19587357 3.73539027 -3.16605307 2.11070205 0 0 Z " fill="#387AD1" transform="translate(73,204)"/>
<path d="M0 0 C0.33 0 0.66 0 1 0 C1 1.98 1 3.96 1 6 C-0.32 6.33 -1.64 6.66 -3 7 C-2.38722388 4.03824877 -1.74627478 2.61941217 0 0 Z " fill="#709CD9" transform="translate(83,188)"/>
<path d="M0 0 C2.29013653 3.4352048 2.17842973 4.985331 2 9 C0.5 7.8125 0.5 7.8125 -1 6 C-1.25 3.375 -1.25 3.375 -1 1 C-0.67 0.67 -0.34 0.34 0 0 Z " fill="#0A0A72" transform="translate(220,97)"/>
<path d="M0 0 C2.9719385 1.12451727 5.33440687 2.22293791 8 4 C7.67 4.66 7.34 5.32 7 6 C4.69 5.01 2.38 4.02 0 3 C0 2.01 0 1.02 0 0 Z " fill="#F9DDA1" transform="translate(179,38)"/>
<path d="M0 0 C2.31 0.33 4.62 0.66 7 1 C6.67 2.65 6.34 4.3 6 6 C5.566875 5.38125 5.13375 4.7625 4.6875 4.125 C3.00259517 1.7802755 3.00259517 1.7802755 0 0 Z " fill="#F8B03C" transform="translate(167,34)"/>
<path d="M0 0 C0.66 0.33 1.32 0.66 2 1 C1.34 3.31 0.68 5.62 0 8 C-1.4606285 5.35261084 -2 4.10551666 -2 1 C-1.34 0.67 -0.68 0.34 0 0 Z " fill="#0556D6" transform="translate(82,194)"/>
<path d="M0 0 C0.99 0.33 1.98 0.66 3 1 C2.25 5.75 2.25 5.75 0 8 C-0.79953138 4.71303767 -1.09658936 3.28976808 0 0 Z " fill="#6E6FB9" transform="translate(214,169)"/>
<path d="M0 0 C2.475 0.99 2.475 0.99 5 2 C5 3.65 5 5.3 5 7 C3.29115995 5.37660195 1.62553283 3.70680947 0 2 C0 1.34 0 0.68 0 0 Z " fill="#F6C08B" transform="translate(158,93)"/>
</svg>
